<?xml version="1.0" encoding="UTF-8" standalone="no"?><!DOCTYPE svg PUBLIC "-//W3C//DTD SVG 1.1//EN" "http://www.w3.org/Graphics/SVG/1.1/DTD/svg11.dtd"><svg width="100%" height="100%" viewBox="0 0 565 329" version="1.1" xmlns="http://www.w3.org/2000/svg" xmlns:xlink="http://www.w3.org/1999/xlink" xml:space="preserve" style="fill-rule:evenodd;clip-rule:evenodd;stroke-linecap:round;stroke-linejoin:round;stroke-miterlimit:1.5;"><rect id="Artboard1" x="0" y="0" width="564.76" height="328.948" style="fill:none;"/><g><g><path d="M81.654,183.842l0,139.281" style="fill:none;stroke:#fff;stroke-width:1.2px;"/><path d="M5.971,5.826l0,25.154" style="fill:none;stroke:#fff;stroke-width:1.2px;"/><path d="M103.662,5.826l0,15.564" style="fill:none;stroke:#fff;stroke-width:1.2px;"/><path d="M202.081,183.842l0,139.281" style="fill:none;stroke:#fff;stroke-width:1.2px;"/><path d="M202.081,135.605l0,19.87" style="fill:none;stroke:#fff;stroke-width:1.2px;"/><path d="M202.081,323.123l-120.427,0" style="fill:none;stroke:#fff;stroke-width:1.2px;"/><path d="M167.412,107.539l-55.926,0" style="fill:none;stroke:#fff;stroke-width:1.2px;"/><path d="M200.167,131.538l-18.855,-18.856" style="fill:none;stroke:#fff;stroke-width:1.2px;"/><path d="M138.057,183.842l-59.896,0" style="fill:none;stroke:#fff;stroke-width:1.2px;"/><path d="M205.737,183.842l-60.06,0" style="fill:none;stroke:#fff;stroke-width:1.2px;"/><path d="M205.574,155.469l-33.449,0" style="fill:none;stroke:#fff;stroke-width:1.2px;"/><path d="M205.574,155.469l0,28.373" style="fill:none;stroke:#fff;stroke-width:1.2px;"/><path d="M138.057,166.634l0,17.208" style="fill:none;stroke:#fff;stroke-width:1.2px;"/><path d="M86.453,29.01l17.209,0" style="fill:none;stroke:#fff;stroke-width:1.2px;"/><path d="M145.677,166.634l0,17.208" style="fill:none;stroke:#fff;stroke-width:1.2px;"/><path d="M86.453,21.39l17.209,0" style="fill:none;stroke:#fff;stroke-width:1.2px;"/><path d="M172.125,155.469c-11.481,0.043 -31.008,0.272 -47.032,-17.431c-13.365,-14.766 -20.324,-50.02 -21.431,-109.028" style="fill:none;stroke:#fff;stroke-width:1.2px;"/><path d="M78.161,183.842c-24.722,0.191 -72.19,-42.096 -72.19,-152.862" style="fill:none;stroke:#fff;stroke-width:1.2px;"/><g><path d="M33.066,149.459c0,0 62.522,-0.069 76.726,0c4.464,0.021 7.912,2.565 7.912,8.567c0,8.184 0.029,17.724 0.029,17.724l-61.091,0" style="fill:none;stroke:#fff;stroke-width:0.5px;"/><path d="M58.332,149.437l19.829,26.313" style="fill:none;stroke:#fff;stroke-width:0.5px;"/><path d="M96.438,149.437l0,26.313" style="fill:none;stroke:#fff;stroke-width:0.5px;"/></g><circle cx="141.867" cy="311.455" r="4.319" style="fill:none;stroke:#fff;stroke-width:1.2px;"/><path d="M138.057,166.634c0,-2.103 1.707,-3.811 3.81,-3.811c2.103,0 3.81,1.708 3.81,3.811" style="fill:none;stroke:#fff;stroke-width:1.2px;"/><path d="M86.453,29.01c-2.103,0 -3.81,-1.707 -3.81,-3.81c0,-2.103 1.707,-3.81 3.81,-3.81" style="fill:none;stroke:#fff;stroke-width:1.2px;"/><path d="M167.412,107.553c6.656,0.13 8.234,-0.537 13.9,5.129" style="fill:none;stroke:#fff;stroke-width:1.2px;"/><path d="M122.004,134.076l79.622,0" style="fill:none;stroke:#fff;stroke-width:1.2px;"/><path d="M200.167,131.538c0.727,0.849 1.914,1.785 1.914,4.067" style="fill:none;stroke:#fff;stroke-width:1.2px;"/><path d="M22.881,25.158l-15.211,0" style="fill:none;stroke:#fff;stroke-width:0.5px;"/><path d="M143.109,168.199c0,-0.685 -0.557,-1.241 -1.242,-1.241c-0.685,0 -1.241,0.556 -1.241,1.241l0,23.83c0,0.685 0.556,1.241 1.241,1.241c0.685,0 1.242,-0.556 1.242,-1.241l0,-23.83Z" style="fill:#ffb700;"/></g><g><path d="M292.347,104.545l0,65.715" style="fill:none;stroke:#fff;stroke-width:1.2px;"/><path d="M558.789,224.403l0,-65.714" style="fill:none;stroke:#fff;stroke-width:1.2px;"/><path d="M294.046,103.003l94.292,0" style="fill:none;stroke:#fff;stroke-width:1.2px;"/><path d="M557.09,225.945l-94.292,0" style="fill:none;stroke:#fff;stroke-width:1.2px;"/><path d="M390.037,104.545l0,56.125" style="fill:none;stroke:#fff;stroke-width:1.2px;"/><path d="M461.099,224.403l0,-56.124" style="fill:none;stroke:#fff;stroke-width:1.2px;"/><path d="M488.456,274.885l0,19.87" style="fill:none;stroke:#fff;stroke-width:1.2px;"/><g><path d="M362.68,54.064l0,-19.87" style="fill:none;stroke:#fff;stroke-width:1.2px;"/><path d="M397.348,82.13l55.926,0" style="fill:none;stroke:#fff;stroke-width:1.2px;"/><path d="M364.593,58.131l18.856,18.855" style="fill:none;stroke:#fff;stroke-width:1.2px;"/><path d="M397.348,82.115c-6.656,-0.13 -8.233,0.537 -13.899,-5.129" style="fill:none;stroke:#fff;stroke-width:1.2px;"/><path d="M442.756,55.593l-79.621,0" style="fill:none;stroke:#fff;stroke-width:1.2px;"/><path d="M364.593,58.131c-0.726,-0.85 -1.913,-1.786 -1.913,-4.067" style="fill:none;stroke:#fff;stroke-width:1.2px;"/></g><path d="M453.787,246.819l-55.926,0" style="fill:none;stroke:#fff;stroke-width:1.2px;"/><path d="M486.542,270.818l-18.855,-18.856" style="fill:none;stroke:#fff;stroke-width:1.2px;"/><path d="M424.432,323.122l-59.896,0" style="fill:none;stroke:#fff;stroke-width:1.2px;"/><path d="M426.703,5.826l59.897,0" style="fill:none;stroke:#fff;stroke-width:1.2px;"/><path d="M492.113,323.122l-60.06,0" style="fill:none;stroke:#fff;stroke-width:1.2px;"/><path d="M359.023,5.826l60.06,0" style="fill:none;stroke:#fff;stroke-width:1.2px;"/><path d="M491.949,294.749l-33.449,0" style="fill:none;stroke:#fff;stroke-width:1.2px;"/><path d="M359.186,34.199l33.449,0" style="fill:none;stroke:#fff;stroke-width:1.2px;"/><path d="M491.949,294.749l0,28.373" style="fill:none;stroke:#fff;stroke-width:1.2px;"/><path d="M359.186,34.199l0,-28.373" style="fill:none;stroke:#fff;stroke-width:1.2px;"/><path d="M424.432,305.914l0,17.208" style="fill:none;stroke:#fff;stroke-width:1.2px;"/><path d="M426.703,23.035l0,-17.209" style="fill:none;stroke:#fff;stroke-width:1.2px;"/><path d="M372.828,168.29l17.209,0" style="fill:none;stroke:#fff;stroke-width:1.2px;"/><path d="M478.307,160.658l-17.208,0" style="fill:none;stroke:#fff;stroke-width:1.2px;"/><path d="M432.053,305.914l0,17.208" style="fill:none;stroke:#fff;stroke-width:1.2px;"/><path d="M419.083,23.035l0,-17.209" style="fill:none;stroke:#fff;stroke-width:1.2px;"/><path d="M372.828,160.67l17.209,0" style="fill:none;stroke:#fff;stroke-width:1.2px;"/><path d="M478.307,168.279l-17.208,0" style="fill:none;stroke:#fff;stroke-width:1.2px;"/><path d="M458.5,294.749c-11.48,0.043 -31.008,0.272 -47.031,-17.431c-13.366,-14.766 -20.324,-50.02 -21.432,-109.028" style="fill:none;stroke:#fff;stroke-width:1.2px;"/><path d="M392.635,34.199c11.481,-0.042 31.009,-0.272 47.032,17.431c13.365,14.766 20.324,50.02 21.432,109.028" style="fill:none;stroke:#fff;stroke-width:1.2px;"/><path d="M364.536,323.122c-24.722,0.191 -72.189,-42.096 -72.189,-152.862" style="fill:none;stroke:#fff;stroke-width:1.2px;"/><path d="M486.6,5.826c24.721,-0.19 72.189,42.097 72.189,152.863" style="fill:none;stroke:#fff;stroke-width:1.2px;"/><g><path d="M319.441,288.739c0,0 62.522,-0.069 76.726,0c4.464,0.021 7.913,2.565 7.913,8.567c0,8.184 0.028,17.724 0.028,17.724l-61.091,0" style="fill:none;stroke:#fff;stroke-width:0.5px;"/><path d="M344.707,288.717l19.829,26.313" style="fill:none;stroke:#fff;stroke-width:0.5px;"/><path d="M382.813,288.717l0,26.313" style="fill:none;stroke:#fff;stroke-width:0.5px;"/></g><g><path d="M531.695,40.21c0,0 -62.522,0.068 -76.727,0c-4.463,-0.022 -7.912,-2.566 -7.912,-8.568c0,-8.184 -0.029,-17.723 -0.029,-17.723l61.092,0" style="fill:none;stroke:#fff;stroke-width:0.5px;"/><path d="M506.428,40.231l-19.828,-26.312" style="fill:none;stroke:#fff;stroke-width:0.5px;"/><path d="M468.322,40.231l0,-26.312" style="fill:none;stroke:#fff;stroke-width:0.5px;"/></g><path d="M424.432,305.914c0,-2.103 1.708,-3.811 3.811,-3.811c2.102,0 3.81,1.708 3.81,3.811" style="fill:none;stroke:#fff;stroke-width:1.2px;"/><path d="M426.703,23.035c0,2.103 -1.707,3.81 -3.81,3.81c-2.103,0 -3.81,-1.707 -3.81,-3.81" style="fill:none;stroke:#fff;stroke-width:1.2px;"/><path d="M372.828,168.29c-2.102,0 -3.81,-1.707 -3.81,-3.81c0,-2.103 1.708,-3.81 3.81,-3.81" style="fill:none;stroke:#fff;stroke-width:1.2px;"/><path d="M478.307,160.658c2.103,0 3.81,1.707 3.81,3.81c0,2.103 -1.707,3.811 -3.81,3.811" style="fill:none;stroke:#fff;stroke-width:1.2px;"/><path d="M453.787,246.833c6.656,0.13 8.234,-0.537 13.9,5.129" style="fill:none;stroke:#fff;stroke-width:1.2px;"/><path d="M408.38,273.356l79.621,0" style="fill:none;stroke:#fff;stroke-width:1.2px;"/><path d="M486.542,270.818c0.727,0.849 1.914,1.785 1.914,4.067" style="fill:none;stroke:#fff;stroke-width:1.2px;"/><path d="M292.347,104.545c0.005,-0.706 0.537,-1.542 1.699,-1.542" style="fill:none;stroke:#fff;stroke-width:1.2px;"/><path d="M558.789,224.403c-0.005,0.707 -0.537,1.542 -1.699,1.542" style="fill:none;stroke:#fff;stroke-width:1.2px;"/><path d="M390.037,104.545c-0.005,-0.706 -0.538,-1.542 -1.699,-1.542" style="fill:none;stroke:#fff;stroke-width:1.2px;"/><path d="M461.099,224.403c0.005,0.707 0.537,1.542 1.699,1.542" style="fill:none;stroke:#fff;stroke-width:1.2px;"/><g><path d="M390.037,106.399l67.614,0" style="fill:none;stroke:#fff;stroke-width:1.2px;"/><path d="M461.099,222.549l-67.614,0" style="fill:none;stroke:#fff;stroke-width:1.2px;"/></g><path d="M309.256,164.437l-15.21,0" style="fill:none;stroke:#fff;stroke-width:0.5px;"/><path d="M557.09,164.437l-15.211,0" style="fill:none;stroke:#fff;stroke-width:0.5px;"/><path d="M477.066,165.679c0.685,0 1.241,-0.556 1.241,-1.242c0,-0.685 -0.556,-1.241 -1.241,-1.241l-23.83,0c-0.685,0 -1.241,0.556 -1.241,1.241c0,0.686 0.556,1.242 1.241,1.242l23.83,0Z" style="fill:#ffb700;"/></g></g></svg>