<svg id="Layer_1" xmlns="http://www.w3.org/2000/svg" viewBox="0 0 115.2 171.8"><style>.st1,.st2{fill:none;stroke:#8b9ab0;stroke-width:2;stroke-linecap:round;stroke-linejoin:round;stroke-miterlimit:1.5}.st2{stroke:#0949aa;stroke-width:3}</style><path d="M8.4 24.8v17.1h98.5V24.8H8.4z" fill="#8b9ab0" stroke="#8b9ab0" stroke-width="2" stroke-linecap="round" stroke-linejoin="round" stroke-miterlimit="10"/><path class="st1" d="M13.2 57.5h88.9l4.8-15.6H8.4l4.8 15.6zM57.6 94.2c3.3 0 6.6.4 9.7 1.2V57.5H47.9v37.8c3.1-.7 6.4-1.1 9.7-1.1z"/><path class="st1" d="M98.8 135.4c0-22.7-18.4-41.2-41.1-41.2s-41.1 18.4-41.1 41.2c0 4.2 3.4 7.6 7.6 7.6 4.2 0 7.6-3.4 7.6-7.6 0-14.3 11.6-25.9 25.9-25.9 14.3 0 25.9 11.6 25.9 25.9 0 4.2 3.4 7.6 7.6 7.6 4.2 0 7.6-3.4 7.6-7.6z"/><path class="st2" d="M109 159.3c-16 6.6-33.5 10.3-51.8 10.3-18.3 0-35.8-3.6-51.7-10.2"/><path class="st2" d="M8.7 168l-4.1-9.1 9.1-4.1M101.6 154.7l9.1 4.1-4.1 9.1"/><path fill="none" stroke="#8b9ab0" stroke-width="2" stroke-linecap="round" stroke-linejoin="round" stroke-miterlimit="10" d="M2.2 2.2h110.7v22.6H2.2z"/><path d="M61 24.8h-6.9c-.3 0-.5-.2-.5-.5V12.9c0-.3.2-.5.5-.5H61c.3 0 .5.2.5.5v11.3c.1.4-.2.6-.5.6z" fill="#8b9ab0"/></svg>